<svg width="415" height="42" viewBox="0 0 415 42" fill="none" xmlns="http://www.w3.org/2000/svg">
<path d="M32.104 41.12L20.288 36.864L25.16 13.176L12.224 41.12L0.296 36.864L5.616 0.855997L14.296 4.272L9.144 32.832L24.936 0.799997L33.504 4.048L28.072 32.888L45.992 0.799997L52.936 6.232L32.104 41.12ZM67.3591 3.656L54.0311 41.12L45.4631 37.48L59.6871 0.855997L67.3591 3.656ZM72.2709 41.176L63.4789 34.064L76.3029 0.799997L83.9749 3.656L73.1669 33.168L86.7749 30.088L88.1749 37.088L72.2709 41.176ZM100.49 41.176L91.6976 34.064L104.522 0.799997L112.194 3.656L101.386 33.168L114.994 30.088L116.394 37.088L100.49 41.176ZM128.316 33.28L125.572 41.12L117.116 37.984L119.86 30.144L128.316 33.28ZM141.24 41.176L132.224 34.008L141.912 8.92L140.848 4.944C147.456 2.144 154.96 0.967999 161.848 0.799997L165.768 8.584C164.2 13.176 161.344 17.208 157.872 20.904L165.656 19.672L167.504 28.016C160.504 38.6 151.936 40.952 141.24 41.176ZM148.408 22.08C152.384 18.272 155.856 13.792 158.488 8.36L150.2 10.544L141.52 34.064C148.744 33.448 155.24 30.984 159.832 25.272L149.304 27.176L148.408 22.08ZM177.327 41.176L168.535 34.064L178.223 8.976L177.215 4.944C184.215 2.088 191.607 0.911999 198.775 0.855997L200.063 7.576L186.399 10.712L183.207 19.448C186.455 18.552 189.759 17.992 193.399 17.656L194.407 22.92L180.575 26.672L178.167 33.224L192.391 29.976L193.791 36.92L177.327 41.176ZM204.77 33.28L202.026 41.12L193.569 37.984L196.313 30.144L204.77 33.28ZM238.301 11.16L230.685 10.6L219.877 41.064L210.749 37.536L221.445 9.984L213.157 9.312L215.789 0.799997L240.429 3.824L238.301 11.16ZM258.779 41.12L250.155 37.48L254.691 25.776L244.723 28.352L240.187 41.12L231.619 37.48L245.843 0.855997L253.515 3.656L247.187 21.352L257.267 19.112L264.379 0.855997L272.051 3.656L258.779 41.12ZM277.077 41.176L268.285 34.064L277.973 8.976L276.965 4.944C283.965 2.088 291.357 0.911999 298.525 0.855997L299.813 7.576L286.149 10.712L282.957 19.448C286.205 18.552 289.509 17.992 293.149 17.656L294.157 22.92L280.325 26.672L277.917 33.224L292.141 29.976L293.541 36.92L277.077 41.176ZM319.024 41.12L308.104 28.632L303.68 41.12L295.167 37.48L306.2 8.92L305.192 5C311.632 2.2 319.696 1.08 327.032 0.799997L332.184 10.488C330.392 16.928 325.632 22.92 318.016 26.672L325.744 34.792L319.024 41.12ZM310.288 22.416C317.736 20.344 322.608 15.528 324.68 8.08L314.6 10.6L310.288 22.416ZM338.163 41.176L329.371 34.064L339.059 8.976L338.051 4.944C345.051 2.088 352.443 0.911999 359.611 0.855997L360.899 7.576L347.235 10.712L344.043 19.448C347.291 18.552 350.595 17.992 354.235 17.656L355.243 22.92L341.411 26.672L339.003 33.224L353.227 29.976L354.627 36.92L338.163 41.176ZM365.605 33.28L362.861 41.12L354.405 37.984L357.149 30.144L365.605 33.28ZM377.801 33.28L375.057 41.12L366.601 37.984L369.345 30.144L377.801 33.28ZM389.996 33.28L387.252 41.12L378.796 37.984L381.54 30.144L389.996 33.28ZM402.191 33.28L399.447 41.12L390.991 37.984L393.735 30.144L402.191 33.28ZM414.387 33.28L411.643 41.12L403.187 37.984L405.931 30.144L414.387 33.28Z" fill="#F8F9FD"/>
</svg>
